# xmcd CD database file generated by Grip 2.95
# 
# Track frame offsets:
#       150
#       13345
#       26682
#       39145
#       53780
#       67562
#       81057
#       96197
#       109072
#       122057
#       134952
#       147502
#       160525
# 
# Disc length: 2296 seconds
# 
# Revision: 3
# Processed by: cddbd v1.4PL0 Copyright (c) Steve Scherf et al.
# Submitted via: Grip 2.95
# 
DISCID=a908f60d
DTITLE=Mississippi John Hurt - 1928 Sessions
DYEAR=1900
DGENRE=
TTITLE0=Ain't No Tellin'
TTITLE1=Stack O' Lee Blues
TTITLE2=Candy Man Blues
TTITLE3=Spike Driver Blues
TTITLE4=Avalon Blues
TTITLE5=Louis Collins 
TTITLE6=Frankie
TTITLE7=Big Leg Blues
TTITLE8=Nobody's Dirty Buisness
TTITLE9=Got The Blues, Can't Be Satisfied
TTITLE10=Blessed Be The Name
TTITLE11=Blue Harvest Blues
TTITLE12=Praying On The Old Camp Ground
EXTD=
EXTT0=
EXTT1=
EXTT2=
EXTT3=
EXTT4=
EXTT5=
EXTT6=
EXTT7=
EXTT8=
EXTT9=
EXTT10=
EXTT11=
EXTT12=
PLAYORDER=
